<svg xmlns="http://www.w3.org/2000/svg" width="250" height="250" viewBox="0 0 250 250"><defs><style>.a{fill:#191919;}.b{fill:#d1ad53;}</style></defs><title>logo</title><rect class="a" width="250" height="250"/><path class="b" d="M57.11,219.6v-8.8a5.24,5.24,0,0,0-2.19-4.8c-3.16-1.82-7-.24-9.72,1.46L45.11,205H43.62a9.66,9.66,0,0,1-5,2v1c.51.08,1.89.39,2,1.43v10.13c0,1.16-1.53,1.65-2.65,1.73v1.13a79.26,79.26,0,0,1,10,0v-1.13c-1.11-.06-2.64-.8-2.64-1.74V210a4.63,4.63,0,0,1,5.23-2c1,.24,1.75,1.64,1.83,2.83v8.84c0,1.16-1.53,1.65-2.65,1.73v1.13a79.32,79.32,0,0,1,10,0v-1.13c-1.11-.06-2.64-.8-2.64-1.74m11.5.74c-1.31,0-1.57-1.72-1.57-1.72V207.09h3.8v-1.52H67v-4.35H65.73A11.43,11.43,0,0,1,63.4,204,22,22,0,0,1,60.26,206v1.06h2.43v11.59c0,2.07,1.11,4,4.35,4a4.48,4.48,0,0,0,4.25-2.32l-1.06-.76a1.82,1.82,0,0,1-1.62.69m14.6-.76c-4-.34-4.84-2.65-4.84-2.65l10.33-8.38-.48-.85a3.39,3.39,0,0,1-1.28-.61,9,9,0,0,0-7.82-1.75,8.65,8.65,0,0,0-6.34,10.9c1.39,5.55,6.34,6.42,9.07,6.45a9.3,9.3,0,0,0,6.87-3.53l-.8-1a5.9,5.9,0,0,1-4.7,1.44m-5.69-9.34c.4-2,.87-3.12,2.65-3.69a2.86,2.86,0,0,1,3.34,1.25c.38.61,1.14,2,.68,2.39l-6.46,5.13a15.32,15.32,0,0,1-.22-5.09m22.72-4.84a5.38,5.38,0,0,0-3.16,3.52L97,205H95.69a9.65,9.65,0,0,1-5,2v1c.51.08,1.89.39,2,1.43v10.13c0,1.16-1.53,1.65-2.65,1.73v1.13a76.65,76.65,0,0,1,9.86,0v-1.13c-1.11-.06-2.64-.8-2.64-1.74v-7.92a3.91,3.91,0,0,1,1.2-2.64c.59-.57,1.58.12,2.19.49a2.36,2.36,0,0,0,2.8-.85,2.11,2.11,0,0,0-.24-2.55,2.84,2.84,0,0,0-2.92-.73m57.57,0a5.38,5.38,0,0,0-3.16,3.52l-.06-3.9h-1.32a9.67,9.67,0,0,1-5,2v1c.51.08,1.89.39,2,1.43v10.13c0,1.16-1.53,1.65-2.64,1.73v1.13a76.62,76.62,0,0,1,9.86,0v-1.13c-1.12-.06-2.64-.8-2.64-1.74v-7.92A3.88,3.88,0,0,1,156,209c.59-.57,1.58.12,2.19.49a2.36,2.36,0,0,0,2.79-.85,2.1,2.1,0,0,0-.24-2.55,2.84,2.84,0,0,0-2.92-.73m-32.66,14.2V198.21h-1.51a9.63,9.63,0,0,1-5,2v1c.51.08,1.89.39,2,1.44v16.94c0,1.16-1.53,1.65-2.65,1.73v1.13a76.63,76.63,0,0,1,9.86,0v-1.13c-1.11-.06-2.64-.8-2.64-1.74m-4.28-21a2.62,2.62,0,0,0,1.34-3,4.07,4.07,0,0,0-2.8-2.07c-3.89-.85-7,.42-10,3.89-2.31,2.68-1.87,6.53-2,9.72h-2.67v1.44h2.67l0,11.09c0,1.16-1.53,1.65-2.65,1.73v1.13a75.18,75.18,0,0,1,9.76,0v-1.13c-1.12-.06-2.64-.8-2.64-1.74V208.53h3.42v-1.44h-3.42s-.14-8.86.72-10.25,1.52-1.29,2.62-1.29c1.46.12,1.94,1.82,3,2.67a2.69,2.69,0,0,0,2.55.36m16.65,6.29c-5.19,0-9.46,3.66-9.4,8.94a9.18,9.18,0,0,0,9.4,8.86c5.19,0,9.41-4,9.39-8.86,0-5.17-3.7-8.94-9.39-8.94m0,16.35c-2.81,0-4.46-3.26-4.46-7.45s1.61-7.6,4.46-7.58,4.43,3.39,4.46,7.58-1.53,7.45-4.46,7.45m39.14-.92c-.8,0-1.22-.49-1.22-2.24v-8.81s-.15-4.44-6.48-4.44c-5.48,0-7,3.36-6.83,4.61a1.58,1.58,0,0,0,1.52,1.16c1.49.08,2.38-1.82,3.19-3.09s1.57-1.4,2.23-1.37a2.51,2.51,0,0,1,2.08,2.41v3.06s-.84.31-1.89.63c-1.57.47-3.46.89-3.89,1.1a5.42,5.42,0,0,0-3.65,5.22s.2,4,4.81,4a7.4,7.4,0,0,0,4.79-2.12,4.39,4.39,0,0,0,3.71,2.17c3.08-.09,4-3.24,4-3.24l-.71-.36s-.88,1.25-1.67,1.27M171.13,217c-.06.63.45,3.1-2.72,3.13-2.09,0-2.14-1.93-2.16-2.69-.09-3.52,4.89-4,4.89-4ZM26.75,195.05v1.13c1.12.06,2.64.8,2.64,1.75v21.69c0,1.16-1.53,1.65-2.65,1.73v1.13a82.05,82.05,0,0,1,10.2,0v-1.13c-1.11-.06-2.64-.8-2.64-1.74V197.91c0-1.16,1.53-1.65,2.65-1.73v-1.13a81.42,81.42,0,0,1-10.2,0"/><path class="b" d="M138.76,171.63a.53.53,0,0,0,.5-.39,36.59,36.59,0,0,1,4.24-9.46.51.51,0,0,0-.17-.7.51.51,0,0,0-.7.17,41.17,41.17,0,0,0-4.36,9.75.5.5,0,0,0,.37.62h.12m77.53-1.82a.51.51,0,1,0-1,.32,39.87,39.87,0,0,1-5,34.81.51.51,0,0,0,.84.58h0a40.89,40.89,0,0,0,5.17-35.71m-64.76-17.69a.51.51,0,0,0,.33-.12,39.82,39.82,0,0,1,42.59-5.56.51.51,0,0,0,.44-.93,40.84,40.84,0,0,0-43.69,5.7.51.51,0,0,0,.33.9"/><path class="b" d="M211.09,164.82a7.21,7.21,0,0,1-4.37.76c-.65-.08-1-.11-1.34-.14l-.57-.08a6,6,0,0,0,2.72-3.81,13,13,0,0,0,3.55,1.16c1.3.25,2.57.21,3.1.45-1,.33-1.73,1-3.08,1.67m-11.4-7.93a19,19,0,0,1-3.23.29c-1.41,0-3,.22-3.35.22-.67,0-.56-.64.95-.89s3.77-.84,4.94-2,.81-3.57,1.26-3.6-.17,2.49,1.79,2.93c-2,1.17-1,2.73-2.35,3.06m-10.61,10.4c-3.48,2-3.42,3.6-3.56,3.93S184,170.64,184,170a26.77,26.77,0,0,1,.55-3c.38-1.77.71-3,.94-3.07a14.43,14.43,0,0,0,2.78-1.27c.81-.61,1.13-2,1.45-2s-.3,2.41.94,3.39,4.15,1.35,4.1,1.62-2.25-.33-5.73,1.68m2.44,23.58c-.26.63-2.37-.6-7.45-3.77-4.47-2.79-6.36-3.73-6.18-6.47.12-1.87,2.15-3.59,3.94-4,.83-.17,1.11,0,2.09.58,1.23.77,1.5,1.11,1.22,1.26-1.47.79-2.62,3-2,4.42,1.14,2.62,8.66,7.32,8.41,8M179,185.63c-.07.28-3.31,1-6.3,1.47s-4.08.84-4,.3,2.13-.36,4.4-1.58,2.76-2.77,3.25-2.83.17.17,1,1.07,1.74,1.29,1.67,1.57m-36.18-33a2.75,2.75,0,0,1-2.73-.64c-.18-.2,0-.41.26-.29a2,2,0,0,0,1.22.23,2.7,2.7,0,0,1,.11-1.46,1.8,1.8,0,0,1,.63-.81c.23-.15.34.13.2.28a1.48,1.48,0,0,0-.32.77c-.09.72.67.88,1.09.5a2.39,2.39,0,0,0,.61-1.23c.09-.31.34-.18.36.06s.16,2.16-1.43,2.58m-3.65-5.14a2.75,2.75,0,0,1-2.73-.67c-.18-.2,0-.42.26-.29a2.16,2.16,0,0,0,1.22.25,3,3,0,0,1,.07-1.49,2.25,2.25,0,0,1,1.18-1c.3-.1.39.2.23.26a1.31,1.31,0,0,0-.84,1.05c-.1.72.66.89,1.08.52a2.4,2.4,0,0,0,.63-1.23c.09-.3.34-.17.36.07s.13,2.16-1.47,2.57m83.11,14.19h0c-.52-.38-1.47-.79-3.08-1.62a17.12,17.12,0,0,0-6.18-1.92c-2-.46-1.48-.85-4.57-1.71a13.59,13.59,0,0,0-4-.74c.74-2.36,2.24-1.05,3-1.22s1.07-.54,1-1.57a4,4,0,0,1,.65-2.06,5.89,5.89,0,0,0,.63-.24c.1-.06.1-.2,0-.36a4.51,4.51,0,0,1-.59-1.45c-.15-.88.25-1.56.08-1.87-2.66-.83-7.83,1.63-7.32.94,4.1-2.79,9.36-2.62,8.31-3.25-1.44-.85-1.12-1.41-3-2.77a5.26,5.26,0,0,0-3.67-.74c.27-.46.94-1.69.7-2.3s-4.8.3-7.82.4a13.46,13.46,0,0,1-4.86-.6,3.31,3.31,0,0,0,2.54,1.68,10.88,10.88,0,0,0,3.9.05c.07,0,.31.43.31.43a7.22,7.22,0,0,1-2.41.28,10.33,10.33,0,0,1-3.21-.55,5.12,5.12,0,0,0,3,1.58,7.53,7.53,0,0,0,3.25-.18l.32.43a6.43,6.43,0,0,1-5.17-.25,2.68,2.68,0,0,0,2.05,1.31,5.83,5.83,0,0,0,2.61,0,5.42,5.42,0,0,0-.79,2.2,11.47,11.47,0,0,0-.33,1.85c-.47,2-2.64,3.65-2.31,3.83s3.93-1.66,3.93-1.66a7.32,7.32,0,0,1-1.22,4c-1.23,1.56-2.73,1.25-4.85,1.81-1.15.3-1.49.55-2.22.47a10.39,10.39,0,0,0-3.76.17c-1.75.47-3.79,1.75-4.93,2s-4.28.52-5.61,1l-1,.34a7.82,7.82,0,0,1-2.11.56,4.7,4.7,0,0,1-1.39-.11,9.06,9.06,0,0,0-2.92-.36,16.76,16.76,0,0,0-4.07.75,31.75,31.75,0,0,1-5.55,1.31,7.32,7.32,0,0,1-3.39-.89,6.31,6.31,0,0,0-3.29.18,11.79,11.79,0,0,1-1.52-1.31c-.67-.78-.7-2.21-1.64-3.26a4.49,4.49,0,0,1-1.05-3.32,6,6,0,0,0,0-2.25c-.21-1.05-.88-1.55-1-1.48a2.58,2.58,0,0,0-.13,1.81,9,9,0,0,1,.14,3c0,.58.37,1.57.28,1.57a2.29,2.29,0,0,1-1-1.62c-.06-.4-.06-2.69-.61-3.43a6.53,6.53,0,0,1-.74-2.66c-.32-1.91-.78-3.35-1-3.22s-.22.34-.28.82a13.53,13.53,0,0,0,.09,3h0c-.36-.59-.94-.89-1.49-.55a4.63,4.63,0,0,0-.41.31,15.88,15.88,0,0,0,.19-2.44c0-1.09-.38-1.13-1-1.37s-.62-.43-1-1-.9-.88-1.43-.55-1.47,1.3-2.22,1.3-1,.23-1.43,1.22-.73.64-.85,1.39a4.08,4.08,0,0,0,2.8,3.38,9,9,0,0,0,1.74.4,1.62,1.62,0,0,0-.89,1.37,4,4,0,0,0,2.89,3.61,8.93,8.93,0,0,0,3.19.25,7.63,7.63,0,0,1,3.44,1.81c.66.47,1.75,1.78,2.32,2.32.23.22,1.61,1.2,1.72,1.32h0a1,1,0,0,0-.23.23,21.59,21.59,0,0,1-2.32-1.6c-.61-.53-2.35-2.52-4.32-3.33-.29-.12-.84.13-1.77.23a7,7,0,0,1-1.92-.09c-.34,0-.54.33-2,.83a10.92,10.92,0,0,0-2.92,1.57c-.37.27-.15.46.1.53s2.95.65,4.16,0a7.23,7.23,0,0,1,3.25-1.11,4.27,4.27,0,0,1,3,1.4,2.77,2.77,0,0,0,2,1,8.46,8.46,0,0,1,2.64,1.57,10,10,0,0,0,2.17,1.42c1.1.6,7.26,4.82,7.63,5s.78-.47.62-.64-.56-.44-.66-.59-.17-.7-.26-.85a15.13,15.13,0,0,0-2-1.18,25.61,25.61,0,0,1-2.15-1.43,71.44,71.44,0,0,1,9,0c2.72.09,5.09-.51,7-.51,2.11,0,3.71.64,5.87.64,3.92,0,4.78-.07,4.78-.07a37.65,37.65,0,0,0-1.13,7.57c0,2.61-1.25,2.75-4,4.49a7.15,7.15,0,0,0-2.66,2.86,25.78,25.78,0,0,0-9.26,2.28,34.24,34.24,0,0,1-5.06,2.27.64.64,0,0,1-.46.06,34.05,34.05,0,0,0-7.38-2.26,16.57,16.57,0,0,0-5,.14c-2.95,0-5.82.1-5.82.1l1.88-1.41c.55-.33,1.44-.93,1.53-1.49.12-.81-4.29-2.17-7-3.61a13.48,13.48,0,0,1-3.88-3,3.3,3.3,0,0,0,1.34,2.73,10.71,10.71,0,0,0,3.29,2s0,0,0,0l0,.49a7.13,7.13,0,0,1-2.16-1,10.37,10.37,0,0,1-2.49-2.1,5.12,5.12,0,0,0,1.8,2.89,7.54,7.54,0,0,0,2.89,1.49l0,.26v.27a6.43,6.43,0,0,1-4.31-2.82s-.16,1,1.11,2.17a8.71,8.71,0,0,0,3.27,1.93l0,.89a2.8,2.8,0,0,1-1.7-.78,3.09,3.09,0,0,0-1.71-1.35c-1.37-.17-2.16.91-3.21,1.78s-1.9.44-3.5,1-2.43,2.44-2.27,2.83-.11.49,2.26-.1a8.81,8.81,0,0,1,4.8-.34c2.33.31,3.77-.33,5.36-.37,2.52-.07,2.69.43,7.26,1.43s12,2.8,12.14,2.86a8.06,8.06,0,0,0,4.23.64c2.7-.23,4.15.07,7.48-.38,6.93-.94,8.73-2,8.73-2s2.47,1.67,5.81,3.56c5.34,3,9.15,4.7,9.15,4.7s1.34,5.41,3,8a15.64,15.64,0,0,0,2.34,2.62c1.25,1.45,2.39,2.77,3.51,4.15l-.73,0a13.44,13.44,0,0,1-4.86-.6A3.31,3.31,0,0,0,201,210.8a10.88,10.88,0,0,0,3.9.05c.07,0,.31.43.31.43a7.25,7.25,0,0,1-2.41.28,10.36,10.36,0,0,1-3.21-.55,5.12,5.12,0,0,0,3,1.58,7.52,7.52,0,0,0,3.25-.18l.25.33,0,.1a6.43,6.43,0,0,1-5.14-.26s.36.93,2.05,1.31a6.5,6.5,0,0,0,3.41.06,2.82,2.82,0,0,1-.43,1.4c-.29.66-.82,1.77-.57,2.34.56,1.26,2.48,1,3.76,1.48s1.36,1.4,2.67,2.48,3.34.82,3.6.48.48-.16-1.25-1.88a8.82,8.82,0,0,1-2.77-3.94c-.88-2-.93-1.55-2.45-3.77a2.7,2.7,0,0,0,.52-.62s1.11-1.72.81-2.47c-.17-.42-1.41-.32-3-.13,0,0-1.66-5.44-2.89-9.07a75.2,75.2,0,0,0-3.13-7.54,6.24,6.24,0,0,1-.22-.77,3.83,3.83,0,0,0-.81-1.5c-.5-.55-2-1.7-2.13-1.83s-1.07-1.42-3.19-3.69-5.93-5.51-5.93-5.51c.14-.92.43-1.09,1.26-2A14.51,14.51,0,0,1,193,175a33.58,33.58,0,0,0,6.46-5.78h0a.9.9,0,0,1-.55-.39l-.06-.11v-.13a2.33,2.33,0,0,1,1.94-2.05l.67-.17.27-.06c-.44-.27-.54-.57-.46-.55a10.15,10.15,0,0,0,1.46.25h.12c.64,0,1.33.16.71.34-1.06.32-1.11.28-2.63.68a1.83,1.83,0,0,0-1.56,1.57c.09.18,1.28.41,3.11.32s3.84-1.13,5.24-1.34c2.41-.36,6.4.67,9.61-.6,2.07-.81,2.56-1.75,3.31-2.19a8,8,0,0,0,1.93-1.38,1.31,1.31,0,0,0-.3-1.76"/><path class="b" d="M132.1,154.65a2.25,2.25,0,0,0,1.34-.28,3,3,0,0,1-.51-1.52,2,2,0,0,1,.29-1.08c.17-.25.4,0,.32.2a1.61,1.61,0,0,0,0,.92.68.68,0,0,0,1.31,0,2.63,2.63,0,0,0,.09-1.5c0-.35.27-.32.39-.09s1.07,2.11-.35,3.21a3,3,0,0,1-3,.52c-.27-.12-.22-.4.14-.4m-1.46,1.14c.09.4.65.84,1.56,1.14.29.1.09.72.87.8,2.63.29,6.54-.58,7.29-1.13.38-.28.12-.92-.68-1.52a7,7,0,0,1-2.63-3.17c-.69-1.71-1.42-2-2-2.14a2.18,2.18,0,0,0-2,.66c-.88.71-1.63.66-2.11,1.63s.09,1.52,0,2.1-.47,1-.32,1.64"/><path class="b" d="M199.85,215.33a39.59,39.59,0,0,1-10.95,5.22h0a.51.51,0,0,0,.34,1h0a40.66,40.66,0,0,0,11.18-5.34.51.51,0,0,0-.58-.85"/></svg>